<?xml version="1.0" encoding="UTF-8" standalone="no"?>
<!-- Generator: Adobe Illustrator 19.0.0, SVG Export Plug-In . SVG Version: 6.00 Build 0)  -->

<svg
   xmlns:dc="http://purl.org/dc/elements/1.1/"
   xmlns:cc="http://creativecommons.org/ns#"
   xmlns:rdf="http://www.w3.org/1999/02/22-rdf-syntax-ns#"
   xmlns:svg="http://www.w3.org/2000/svg"
   xmlns="http://www.w3.org/2000/svg"
   xmlns:sodipodi="http://sodipodi.sourceforge.net/DTD/sodipodi-0.dtd"
   xmlns:inkscape="http://www.inkscape.org/namespaces/inkscape"
   version="1.1"
   id="Layer_1"
   x="0px"
   y="0px"
   viewBox="0 0 512 512"
   style="enable-background:new 0 0 512 512;"
   xml:space="preserve"
   sodipodi:docname="simulate_icon.svg"
   inkscape:version="0.92.3 (2405546, 2018-03-11)"><metadata
   id="metadata53"><rdf:RDF><cc:Work
       rdf:about=""><dc:format>image/svg+xml</dc:format><dc:type
         rdf:resource="http://purl.org/dc/dcmitype/StillImage" /></cc:Work></rdf:RDF></metadata><defs
   id="defs51" /><sodipodi:namedview
   pagecolor="#ffffff"
   bordercolor="#666666"
   borderopacity="1"
   objecttolerance="10"
   gridtolerance="10"
   guidetolerance="10"
   inkscape:pageopacity="0"
   inkscape:pageshadow="2"
   inkscape:window-width="1175"
   inkscape:window-height="1053"
   id="namedview49"
   showgrid="false"
   inkscape:zoom="0.921875"
   inkscape:cx="183.18695"
   inkscape:cy="225.38329"
   inkscape:window-x="588"
   inkscape:window-y="614"
   inkscape:window-maximized="0"
   inkscape:current-layer="Layer_1" />
<path
   style="fill:#4dc3ff;fill-opacity:1"
   d="M278.624,422.624c-12.496-12.496-32.752-12.496-45.248,0L160,496h12.144h167.712H352L278.624,422.624  z"
   id="path2" />
<path
   style="fill:#297bcc;fill-opacity:1"
   d="M278.624,422.624l11.312-11.312c-9.328-9.344-21.712-14.08-33.936-14.064  c-12.224-0.016-24.608,4.72-33.936,14.064l-73.376,73.376c-4.576,4.576-5.952,11.456-3.472,17.44  c2.48,5.968,8.32,9.872,14.784,9.872h12.144h167.712H352c6.464,0,12.304-3.904,14.784-9.872c2.48-5.984,1.104-12.864-3.472-17.44  l-73.376-73.376L278.624,422.624l-11.312,11.312l73.376,73.376L352,496v-16h-12.144H172.144H160v16l11.312,11.312l73.376-73.376  c3.168-3.152,7.168-4.672,11.312-4.688c4.144,0.016,8.144,1.536,11.312,4.688L278.624,422.624z"
   id="path4" />
<path
   style="fill:#4dc3ff;fill-opacity:1"
   d="M146.592,176c21.92,38.08,62.24,64,109.408,64s87.488-25.92,109.408-64H146.592z"
   id="path6" />
<g
   id="g16">
	<path
   style="fill:#297bcc;fill-opacity:1"
   d="M80,32h32v80c0.016,66.064,44.528,121.584,105.168,138.544c0.576,0.16,1.184,0.288,1.76,0.448   c4.896,1.296,9.872,2.336,14.96,3.12c1.424,0.224,2.832,0.464,4.256,0.656C244,255.504,249.936,256,256,256s12-0.496,17.856-1.216   c1.44-0.176,2.832-0.432,4.256-0.656c5.088-0.784,10.064-1.824,14.96-3.12c0.592-0.16,1.184-0.288,1.76-0.448   C355.472,233.584,400,178.064,400,112V32h32c8.832,0,16-7.168,16-16s-7.168-16-16-16h-48h-44.144H172.144H128H80   c-8.832,0-16,7.168-16,16S71.168,32,80,32z M286.32,219.696c-0.72,0.208-1.456,0.368-2.176,0.56   c-3.488,0.928-7.056,1.648-10.672,2.224c-1.28,0.208-2.544,0.432-3.824,0.592C265.168,223.616,260.64,224,256,224   c-4.64,0-9.168-0.384-13.648-0.928c-1.28-0.16-2.544-0.384-3.824-0.592c-3.616-0.576-7.184-1.296-10.672-2.224   c-0.72-0.192-1.456-0.352-2.176-0.56C207.792,214.528,191.904,208,178.992,192h154.016C320.096,208,304.208,214.528,286.32,219.696   z M144,32h224v80c-0.032,17.216-4.048,33.44-10.992,48H154.976c-6.928-14.56-10.944-30.784-10.976-48V32z"
   id="path8" />
	<path
   style="fill:#297bcc;fill-opacity:1"
   d="M432,480h-32v-80c-0.016-79.536-64.464-143.984-144-144c-79.536,0.016-143.984,64.464-144,144v80H80   c-8.832,0-16,7.168-16,16s7.168,16,16,16h352c8.832,0,16-7.168,16-16S440.832,480,432,480z M368,480h-28.144H172.144H144v-80   c0.112-61.856,50.144-111.888,112-112c61.856,0.112,111.888,50.144,112,112V480z"
   id="path10" />
	<path
   style="fill:#297bcc;fill-opacity:1"
   d="M256,288c-8.832,0-16,7.168-16,16v19.2c0,8.832,7.168,16,16,16s16-7.168,16-16V304   C272,295.168,264.832,288,256,288z"
   id="path12" />
	<path
   style="fill:#297bcc;fill-opacity:1"
   d="M256,352c-8.832,0-16,7.168-16,16v16c0,8.832,7.168,16,16,16s16-7.168,16-16v-16   C272,359.168,264.832,352,256,352z"
   id="path14" />
</g>
<g
   id="g18">
</g>
<g
   id="g20">
</g>
<g
   id="g22">
</g>
<g
   id="g24">
</g>
<g
   id="g26">
</g>
<g
   id="g28">
</g>
<g
   id="g30">
</g>
<g
   id="g32">
</g>
<g
   id="g34">
</g>
<g
   id="g36">
</g>
<g
   id="g38">
</g>
<g
   id="g40">
</g>
<g
   id="g42">
</g>
<g
   id="g44">
</g>
<g
   id="g46">
</g>
<path
   style="fill:#ffffff;fill-opacity:1;stroke-width:1.08474576"
   d="m 144.39552,431.59299 c 0.45152,-47.29825 0.46276,-47.49406 3.34686,-58.30509 3.32144,-12.45042 10.65731,-28.37094 17.46615,-37.90556 6.00353,-8.40691 17.76764,-20.17102 26.17455,-26.17455 14.02457,-10.0152 40.38563,-19.98769 52.83501,-19.98769 h 4.34618 l -2.9896,2.35162 c -4.81908,3.79069 -5.98113,8.12295 -5.97926,22.29151 0.002,14.65319 1.33523,18.67314 7.59154,22.88888 5.17707,3.4885 14.83194,3.00448 19.07126,-0.95608 5.16898,-4.82911 5.87789,-7.50496 5.87789,-22.18659 0,-14.31736 -0.49342,-16.34199 -5.21685,-21.40628 l -2.78226,-2.98306 h 3.38626 c 5.42146,0 17.48894,2.8518 27.69597,6.54513 10.67888,3.86408 25.08732,12.49852 34.58134,20.72333 15.35139,13.29915 28.59745,34.875 34.20483,55.7146 l 2.91876,10.84745 0.41441,48 0.41443,48 h -4.65486 -4.65485 l -36.91631,-36.76023 c -37.4153,-37.25713 -40.37762,-39.73782 -51.91556,-43.47471 l -4.1518,-1.34469 2.11794,-2.32883 c 3.94915,-4.34236 4.55855,-6.94289 4.55855,-19.45303 0,-13.47254 -1.19458,-16.82769 -7.70885,-21.65138 -3.77446,-2.79491 -11.57433,-2.87876 -16.19326,-0.17407 -6.69042,3.91769 -8.05641,6.98797 -8.47345,19.04539 -0.45898,13.27022 0.22876,17.29165 3.65316,21.36133 l 2.6489,3.14804 -6.40907,2.33687 c -3.52499,1.28527 -9.25167,4.46772 -12.72596,7.07209 -3.47429,2.60439 -21.44614,19.92004 -39.93745,38.47923 l -33.62056,33.74399 h -4.71354 -4.71355 z"
   id="path860"
   inkscape:connector-curvature="0" /><path
   style="fill:#ffffff;fill-opacity:1;stroke-width:1.08474576"
   d="m 153.75753,156.06756 c -8.59265,-21.8645 -8.75989,-23.23834 -9.30924,-76.474574 l -0.48973,-47.457628 h 111.81759 111.81758 l -0.007,43.118645 c -0.004,32.171257 -0.40562,45.734997 -1.57883,53.423727 -1.46734,9.61634 -5.26093,22.75375 -8.10489,28.06777 l -1.23356,2.30511 H 255.7999 154.92986 Z"
   id="path862"
   inkscape:connector-curvature="0" /></svg>