<?xml version="1.0" encoding="UTF-8" standalone="no"?>
<!-- Generator: Adobe Illustrator 19.0.0, SVG Export Plug-In . SVG Version: 6.00 Build 0)  -->

<svg
   xmlns:dc="http://purl.org/dc/elements/1.1/"
   xmlns:cc="http://creativecommons.org/ns#"
   xmlns:rdf="http://www.w3.org/1999/02/22-rdf-syntax-ns#"
   xmlns:svg="http://www.w3.org/2000/svg"
   xmlns="http://www.w3.org/2000/svg"
   xmlns:sodipodi="http://sodipodi.sourceforge.net/DTD/sodipodi-0.dtd"
   xmlns:inkscape="http://www.inkscape.org/namespaces/inkscape"
   version="1.1"
   id="Layer_1"
   x="0px"
   y="0px"
   viewBox="0 0 512 512"
   style="enable-background:new 0 0 512 512;"
   xml:space="preserve"
   sodipodi:docname="export_icon.svg"
   inkscape:version="0.92.3 (2405546, 2018-03-11)"><metadata
   id="metadata49"><rdf:RDF><cc:Work
       rdf:about=""><dc:format>image/svg+xml</dc:format><dc:type
         rdf:resource="http://purl.org/dc/dcmitype/StillImage" /></cc:Work></rdf:RDF></metadata><defs
   id="defs47" /><sodipodi:namedview
   pagecolor="#ffffff"
   bordercolor="#666666"
   borderopacity="1"
   objecttolerance="10"
   gridtolerance="10"
   guidetolerance="10"
   inkscape:pageopacity="0"
   inkscape:pageshadow="2"
   inkscape:window-width="1160"
   inkscape:window-height="927"
   id="namedview45"
   showgrid="false"
   inkscape:zoom="0.921875"
   inkscape:cx="306.08414"
   inkscape:cy="120.90125"
   inkscape:window-x="1633"
   inkscape:window-y="809"
   inkscape:window-maximized="0"
   inkscape:current-layer="Layer_1" />
<path
   style="fill:#97DBFF;"
   d="M438.624,134.624L322.192,18.192L320,19.104V112c0,17.68,14.32,32,32,32h82.736  C436.608,139.472,436.752,139.152,438.624,134.624z"
   id="path2" />
<path
   style="fill:#297bcc;fill-opacity:1"
   d="M448,123.328v-0.016L332.544,6.88c-3.44-3.456-7.728-5.072-12.416-4.592  C315.648,0.928,311.504,0,306.736,0H96C69.488,0.016,48.016,21.488,48,48v416c0.016,26.512,21.488,48,48,48h320  c26.512,0,47.984-21.488,48-48V157.264C464,144.528,464,132.336,448,123.328z M336,54.624L409.376,128H352  c-8.832-0.016-15.984-7.168-16-16V54.624z M432,464c-0.016,8.832-7.168,15.984-16,16H96c-8.832-0.016-15.984-7.168-16-16V48  c0.016-8.832,7.168-16,16-16h208v80c0.016,26.512,21.488,48,48,48h80V464z"
   id="path4" />
<path
   style="fill:#297bcc;fill-opacity:1"
   d="M128,224h256c8.832,0,16-7.168,16-16s-7.168-16-16-16H128c-8.832,0-16,7.168-16,16  S119.168,224,128,224"
   id="path6" />
<path
   style="fill:#297bcc;fill-opacity:1"
   d="M128,288h256c8.832,0,16-7.168,16-16s-7.168-16-16-16H128c-8.832,0-16,7.168-16,16  S119.168,288,128,288"
   id="path8" />
<path
   style="fill:#297bcc;fill-opacity:1"
   d="M128,352h256c8.832,0,16-7.168,16-16s-7.168-16-16-16H128c-8.832,0-16,7.168-16,16  S119.168,352,128,352"
   id="path10" />
<path
   style="fill:#297bcc;fill-opacity:1"
   d="M128,416h128c8.832,0,16-7.168,16-16s-7.168-16-16-16H128c-8.832,0-16,7.168-16,16  S119.168,416,128,416"
   id="path12" />
<g
   id="g14">
</g>
<g
   id="g16">
</g>
<g
   id="g18">
</g>
<g
   id="g20">
</g>
<g
   id="g22">
</g>
<g
   id="g24">
</g>
<g
   id="g26">
</g>
<g
   id="g28">
</g>
<g
   id="g30">
</g>
<g
   id="g32">
</g>
<g
   id="g34">
</g>
<g
   id="g36">
</g>
<g
   id="g38">
</g>
<g
   id="g40">
</g>
<g
   id="g42">
</g>
<path
   style="fill:#ffffff;fill-opacity:1;stroke-width:2.16949153"
   d="m 89.060012,476.79551 c -2.922079,-1.61825 -6.026343,-4.75652 -6.898364,-6.97396 -0.872022,-2.21744 -1.654112,-99.01846 -1.737978,-215.11337 l -0.152484,-211.081678 5.325116,-5.325115 5.325116,-5.325116 h 106.403692 106.4037 l 0.0477,45.016949 c 0.0525,49.55006 1.34656,55.77851 14.24083,68.54043 12.92832,12.79559 15.30975,13.29861 66.52509,14.05194 l 47.18644,0.69406 v 151.61064 c 0,106.49169 -0.71682,153.1839 -2.40872,156.89722 -1.3248,2.9076 -4.7877,6.37049 -7.6953,7.69529 -8.47034,3.85933 -325.538094,3.20408 -332.564782,-0.68729 z M 266.79227,412.69248 c 9.57409,-9.5741 6.67123,-23.68106 -5.8528,-28.44268 -3.46313,-1.31669 -31.86709,-1.91413 -72.75487,-1.5303 l -67.07382,0.62965 -5.43375,6.32006 c -6.41145,7.45723 -5.686,17.35955 1.72239,23.51045 4.14756,3.44355 11.10724,3.79661 74.84092,3.79661 67.07375,0 70.46288,-0.19482 74.55193,-4.28379 z m 129.52925,-66.03626 c 6.41299,-7.45704 5.68819,-17.35895 -1.72095,-23.51046 -4.24626,-3.52551 -14.14341,-3.79661 -138.60057,-3.79661 -124.45717,0 -134.35432,0.2711 -138.60058,3.79661 -6.91387,5.74033 -8.03019,15.69248 -2.5427,22.66867 2.50347,3.18265 6.72893,6.22171 9.3899,6.75348 2.66097,0.53176 63.74348,0.84117 135.73891,0.6876 l 130.90078,-0.27924 z m -1.52925,-61.96374 c 9.53932,-9.53932 6.67593,-23.67928 -5.75196,-28.40435 -3.47695,-1.32194 -55.02136,-1.89874 -136.75323,-1.53029 l -131.173,0.59131 -5.4354,6.32006 c -6.41321,7.45699 -5.68849,17.35886 1.72074,23.51045 4.24646,3.52566 14.15486,3.79661 138.84092,3.79661 130.79894,0 134.37882,-0.11064 138.55193,-4.28379 z m 1.52925,-66.03626 c 6.41299,-7.45704 5.68819,-17.35895 -1.72095,-23.51046 -4.24626,-3.5255 -14.14341,-3.79661 -138.60057,-3.79661 -124.45717,0 -134.35432,0.27111 -138.60058,3.79661 -6.91387,5.74032 -8.03019,15.69247 -2.5427,22.66868 2.50347,3.18265 6.72893,6.22171 9.3899,6.75347 2.66097,0.53175 63.74348,0.84117 135.73891,0.68759 l 130.90078,-0.27923 z"
   id="path856"
   inkscape:connector-curvature="0" /></svg>