<?xml version="1.0" encoding="iso-8859-1"?>
<!-- Generator: Adobe Illustrator 19.0.0, SVG Export Plug-In . SVG Version: 6.00 Build 0)  -->
<svg version="1.1" id="Layer_1" xmlns="http://www.w3.org/2000/svg" xmlns:xlink="http://www.w3.org/1999/xlink" x="0px" y="0px"
	 viewBox="0 0 511.984 511.984" style="enable-background:new 0 0 511.984 511.984;" xml:space="preserve">
<polygon style="fill:#4DC3FF;" points="255.992,207.993 255.992,495.984 31.999,399.988 31.999,111.997 "/>
<linearGradient id="SVGID_1_" gradientUnits="userSpaceOnUse" x1="-28.9409" y1="631.3077" x2="-15.6509" y2="618.0178" gradientTransform="matrix(15.9995 0 0 -15.9995 735.1034 10308.6738)">
	<stop  offset="0" style="stop-color:#4DA6FF"/>
	<stop  offset="1" style="stop-color:#4DC3FF"/>
</linearGradient>
<polygon style="fill:url(#SVGID_1_);" points="479.985,111.997 479.985,399.988 255.992,495.984 255.992,207.993 "/>
<polygon style="fill:#4DE1FF;" points="479.985,111.997 255.992,207.993 31.999,111.997 255.992,16 "/>
<path style="fill:#297BCC;" d="M486.289,97.293L262.296,1.296c-4.048-1.728-8.56-1.728-12.608,0L25.695,97.293
	C19.791,99.821,16,105.581,16,111.997v287.991c0,6.416,3.792,12.176,9.696,14.704l223.993,95.997c4.048,1.728,8.56,1.728,12.608,0
	l223.993-95.997c5.904-2.528,9.696-8.272,9.696-14.704V111.997C495.985,105.581,492.193,99.821,486.289,97.293z M239.993,471.729
	L47.999,389.444V136.268l191.994,82.285V471.729z M255.992,190.586l-183.37-78.59l183.37-78.59l183.37,78.59L255.992,190.586z
	 M463.986,389.444l-191.994,82.285V218.553l191.994-82.285V389.444z"/>
<g>
</g>
<g>
</g>
<g>
</g>
<g>
</g>
<g>
</g>
<g>
</g>
<g>
</g>
<g>
</g>
<g>
</g>
<g>
</g>
<g>
</g>
<g>
</g>
<g>
</g>
<g>
</g>
<g>
</g>
</svg>
