<?xml version="1.0" encoding="iso-8859-1"?>
<!-- Generator: Adobe Illustrator 19.0.0, SVG Export Plug-In . SVG Version: 6.00 Build 0)  -->
<svg version="1.1" id="Layer_1" xmlns="http://www.w3.org/2000/svg" xmlns:xlink="http://www.w3.org/1999/xlink" x="0px" y="0px"
	 viewBox="0 0 511.889 511.889" style="enable-background:new 0 0 511.889 511.889;" xml:space="preserve">
<linearGradient id="SVGID_1_" gradientUnits="userSpaceOnUse" x1="-30.1889" y1="632.0804" x2="-16.1889" y2="618.9134" gradientTransform="matrix(16 0 0 -16 735.8303 10309)">
	<stop  offset="0" style="stop-color:#4DA6FF"/>
	<stop  offset="1" style="stop-color:#4DC3FF"/>
</linearGradient>
<polygon style="fill:url(#SVGID_1_);" points="479.945,112 479.945,400 255.945,496 255.945,371.2 383.945,316.48 383.945,153.92 
	383.945,153.28 "/>
<polygon style="fill:#4DE1FF;" points="255.945,16 479.945,112 383.945,153.28 382.985,153.6 255.945,99.2 128.905,153.6 
	31.945,112 "/>
<polygon style="fill:#4DC3FF;" points="255.945,371.2 255.945,496 31.945,400 31.945,112 128.905,153.6 127.945,153.92 
	127.945,316.48 "/>
<path style="fill:#297BCC;" d="M495.945,112c0-0.016-0.016-0.032-0.016-0.064c0-1.472-0.24-2.88-0.624-4.256
	c-0.128-0.464-0.352-0.88-0.512-1.328c-0.336-0.896-0.72-1.76-1.216-2.576c-0.288-0.48-0.624-0.912-0.96-1.36
	c-0.528-0.704-1.104-1.344-1.744-1.952c-0.432-0.4-0.848-0.784-1.328-1.136c-0.288-0.208-0.496-0.48-0.8-0.688
	c-0.496-0.336-1.056-0.512-1.584-0.784c-0.32-0.16-0.576-0.416-0.912-0.56l-224-96c-4.048-1.728-8.56-1.728-12.608,0l-224,96
	c-0.336,0.144-0.592,0.4-0.912,0.56c-0.528,0.272-1.088,0.464-1.6,0.784c-0.288,0.208-0.512,0.48-0.784,0.688
	c-0.48,0.352-0.896,0.72-1.328,1.12c-0.656,0.624-1.232,1.28-1.76,1.984c-0.336,0.432-0.656,0.864-0.944,1.328
	c-0.496,0.832-0.88,1.712-1.232,2.624c-0.16,0.432-0.368,0.832-0.496,1.296c-0.384,1.376-0.624,2.784-0.64,4.256
	c0,0.032,0,0.048,0,0.064l0,0v288c0,6.416,3.792,12.176,9.696,14.704l224,96c0.176,0.08,0.352,0.08,0.528,0.16
	c0.656,0.256,1.328,0.416,2,0.576c0.608,0.144,1.2,0.32,1.808,0.384c0.656,0.08,1.296,0.064,1.952,0.064
	c0.656,0,1.312,0.016,1.952-0.064c0.608-0.08,1.216-0.24,1.808-0.384c0.672-0.16,1.344-0.32,2-0.576
	c0.176-0.064,0.352-0.08,0.528-0.16l224-96c5.936-2.528,9.728-8.272,9.728-14.704V112L495.945,112L495.945,112z M255.945,33.408
	l183.44,78.624l-56.304,24.208L262.249,84.496c-4.048-1.728-8.56-1.728-12.592,0l-120.752,51.696l-2.32-0.992l-54.048-23.184
	L255.945,33.408z M239.945,471.744l-192-82.288V136.272l64,27.456V316.48c0,6.416,3.808,12.192,9.712,14.704l118.288,50.576V471.744
	z M255.945,353.808l-112-47.888V164.56l112-47.952l112,47.952v141.36L255.945,353.808z M463.945,389.456l-192,82.288V381.76
	l118.288-50.576c5.904-2.512,9.712-8.272,9.712-14.704V163.808l64-27.52V389.456z"/>
<g>
	<polygon style="fill:#FFFFFF;" points="383.945,316.48 383.945,153.92 255.945,99.2 255.945,262.4 382.985,316.8 	"/>
	<polygon style="fill:#FFFFFF;" points="382.985,316.8 255.945,262.4 128.905,316.8 255.945,371.2 	"/>
	<polygon style="fill:#FFFFFF;" points="255.945,262.4 255.945,99.2 127.945,153.92 127.945,316.48 128.905,316.8 	"/>
</g>
<path style="fill:#3398FF;" d="M390.233,139.216l-128-54.72c-0.176-0.08-0.368-0.08-0.544-0.16c-0.608-0.24-1.232-0.368-1.856-0.528
	c-0.64-0.16-1.28-0.336-1.936-0.416s-1.296-0.064-1.952-0.064c-0.64,0-1.28-0.016-1.92,0.064c-0.672,0.08-1.312,0.256-1.968,0.416
	c-0.624,0.16-1.232,0.288-1.84,0.528c-0.176,0.064-0.368,0.08-0.56,0.16l-128,54.72c-5.904,2.528-9.712,8.288-9.712,14.704v162.56
	c0,6.912,4.384,12.992,10.944,15.184l0.32,0.112l126.432,54.144c4.048,1.728,8.56,1.728,12.592,0l126.432-54.144l0.32-0.112
	c6.576-2.176,10.96-8.272,10.96-15.184V153.92C399.945,147.504,396.137,141.744,390.233,139.216z M143.945,164.48l96-41.04v128.4
	l-96,41.12V164.48z M255.945,353.792l-86.4-36.992l85.296-36.528l1.104-0.464l86.4,36.992L255.945,353.792z M367.945,292.96
	l-96-41.104V123.44l96,41.04V292.96z"/>
<g>
</g>
<g>
</g>
<g>
</g>
<g>
</g>
<g>
</g>
<g>
</g>
<g>
</g>
<g>
</g>
<g>
</g>
<g>
</g>
<g>
</g>
<g>
</g>
<g>
</g>
<g>
</g>
<g>
</g>
</svg>
